<svg width="1200" height="1200" viewBox="0 0 321 67" fill="none" xmlns="http://www.w3.org/2000/svg">
<path fill-rule="evenodd" clip-rule="evenodd" d="M6.5362 4C4.80269 4 3.14018 4.68863 1.91441 5.91441C0.688634 7.14018 0 8.80269 0 10.5362V27.9661C0 29.6996 0.688634 31.3621 1.91441 32.5879C3.14018 33.8136 4.80269 34.5023 6.5362 34.5023H28.3235C30.057 34.5023 31.7195 33.8136 32.9453 32.5879C34.1711 31.3621 34.8597 29.6996 34.8597 27.9661V24.5106L39.8556 29.5064C40.1603 29.811 40.5484 30.0185 40.971 30.1025C41.3936 30.1865 41.8316 30.1434 42.2296 29.9785C42.6277 29.8136 42.9679 29.5345 43.2073 29.1763C43.4467 28.8181 43.5746 28.3969 43.5747 27.9661V10.5362C43.5746 10.1054 43.4467 9.68421 43.2073 9.326C42.9679 8.9678 42.6277 8.68862 42.2296 8.52375C41.8316 8.35889 41.3936 8.31574 40.971 8.39977C40.5484 8.4838 40.1603 8.69123 39.8556 8.99583L34.8597 13.9917V10.5362C34.8597 8.80269 34.1711 7.14018 32.9453 5.91441C31.7195 4.68863 30.057 4 28.3235 4H6.5362Z" fill="#0073B4" />
<path d="M59.8381 7.18182L65.1115 23.7585H65.3139L70.598 7.18182H75.7116L68.1903 29H62.2457L54.7138 7.18182H59.8381ZM78.2525 29V12.6364H82.7908V29H78.2525ZM80.5323 10.527C79.8576 10.527 79.2788 10.3033 78.7958 9.85582C78.32 9.40128 78.082 8.85795 78.082 8.22585C78.082 7.60085 78.32 7.06463 78.7958 6.61719C79.2788 6.16264 79.8576 5.93537 80.5323 5.93537C81.207 5.93537 81.7823 6.16264 82.2582 6.61719C82.7411 7.06463 82.9826 7.60085 82.9826 8.22585C82.9826 8.85795 82.7411 9.40128 82.2582 9.85582C81.7823 10.3033 81.207 10.527 80.5323 10.527ZM92.4561 29.2663C91.2132 29.2663 90.0875 28.9467 89.079 28.3075C88.0776 27.6612 87.2821 26.7131 86.6926 25.4631C86.1103 24.206 85.8191 22.6648 85.8191 20.8395C85.8191 18.9645 86.1209 17.4055 86.7246 16.1626C87.3283 14.9126 88.1309 13.9787 89.1323 13.3608C90.1408 12.7358 91.2452 12.4233 92.4455 12.4233C93.3617 12.4233 94.1252 12.5795 94.736 12.892C95.3539 13.1974 95.851 13.581 96.2275 14.0426C96.611 14.4972 96.9022 14.9446 97.101 15.3849H97.2395V7.18182H101.767V29H97.2928V26.3793H97.101C96.888 26.8338 96.5861 27.2848 96.1955 27.7322C95.812 28.1726 95.3113 28.5384 94.6934 28.8295C94.0826 29.1207 93.3368 29.2663 92.4561 29.2663ZM93.8944 25.6548C94.6259 25.6548 95.2438 25.456 95.748 25.0582C96.2594 24.6534 96.65 24.0888 96.9199 23.3643C97.1969 22.6399 97.3354 21.7912 97.3354 20.8182C97.3354 19.8452 97.2005 19 96.9306 18.2827C96.6607 17.5653 96.2701 17.0114 95.7587 16.6207C95.2473 16.2301 94.6259 16.0348 93.8944 16.0348C93.1486 16.0348 92.5201 16.2372 92.0087 16.642C91.4973 17.0469 91.1103 17.608 90.8475 18.3253C90.5847 19.0426 90.4533 19.8736 90.4533 20.8182C90.4533 21.7699 90.5847 22.6115 90.8475 23.343C91.1174 24.0675 91.5044 24.6357 92.0087 25.0476C92.5201 25.4524 93.1486 25.6548 93.8944 25.6548ZM105.584 29V7.18182H114.32C115.925 7.18182 117.263 7.41974 118.336 7.8956C119.408 8.37145 120.214 9.03196 120.754 9.87713C121.294 10.7152 121.564 11.6811 121.564 12.7749C121.564 13.6271 121.393 14.3764 121.053 15.0227C120.712 15.6619 120.243 16.1875 119.646 16.5994C119.057 17.0043 118.382 17.2919 117.622 17.4624V17.6754C118.453 17.7109 119.231 17.9453 119.955 18.3786C120.687 18.8118 121.28 19.419 121.734 20.2003C122.189 20.9744 122.416 21.8977 122.416 22.9702C122.416 24.1278 122.129 25.1612 121.553 26.0703C120.985 26.9723 120.143 27.6861 119.028 28.2116C117.913 28.7372 116.539 29 114.906 29H105.584ZM110.197 25.2287H113.957C115.243 25.2287 116.18 24.9837 116.77 24.4936C117.359 23.9964 117.654 23.3359 117.654 22.5121C117.654 21.9084 117.509 21.3757 117.217 20.9141C116.926 20.4524 116.511 20.0902 115.971 19.8274C115.438 19.5646 114.803 19.4332 114.064 19.4332H110.197V25.2287ZM110.197 16.3118H113.616C114.249 16.3118 114.81 16.2017 115.3 15.9815C115.797 15.7543 116.188 15.4347 116.472 15.0227C116.763 14.6108 116.908 14.1172 116.908 13.5419C116.908 12.7536 116.628 12.1179 116.067 11.6349C115.513 11.152 114.724 10.9105 113.702 10.9105H110.197V16.3118ZM125.418 29V7.18182H134.026C135.681 7.18182 137.09 7.49787 138.255 8.12997C139.42 8.75497 140.308 9.625 140.919 10.7401C141.536 11.848 141.845 13.1264 141.845 14.5753C141.845 16.0241 141.533 17.3026 140.908 18.4105C140.283 19.5185 139.377 20.3814 138.191 20.9993C137.012 21.6172 135.585 21.9261 133.909 21.9261H128.422V18.2294H133.163C134.051 18.2294 134.782 18.0767 135.357 17.7713C135.94 17.4588 136.373 17.0291 136.657 16.4822C136.948 15.9283 137.094 15.2926 137.094 14.5753C137.094 13.8509 136.948 13.2187 136.657 12.679C136.373 12.1321 135.94 11.7095 135.357 11.4112C134.775 11.1058 134.036 10.9531 133.142 10.9531H130.031V29H125.418ZM144.842 7.18182H150.531L156.539 21.8409H156.795L162.803 7.18182H168.492V29H164.018V14.799H163.837L158.19 28.8935H155.143L149.497 14.7457H149.316V29H144.842V7.18182Z" fill="#545454" />
<path d="M59.8381 7.18182L65.1115 23.7585H65.3139L70.598 7.18182H75.7116L68.1903 29H62.2457L54.7138 7.18182H59.8381ZM78.2525 29V12.6364H82.7908V29H78.2525ZM80.5323 10.527C79.8576 10.527 79.2788 10.3033 78.7958 9.85582C78.32 9.40128 78.082 8.85795 78.082 8.22585C78.082 7.60085 78.32 7.06463 78.7958 6.61719C79.2788 6.16264 79.8576 5.93537 80.5323 5.93537C81.207 5.93537 81.7823 6.16264 82.2582 6.61719C82.7411 7.06463 82.9826 7.60085 82.9826 8.22585C82.9826 8.85795 82.7411 9.40128 82.2582 9.85582C81.7823 10.3033 81.207 10.527 80.5323 10.527ZM92.4561 29.2663C91.2132 29.2663 90.0875 28.9467 89.079 28.3075C88.0776 27.6612 87.2821 26.7131 86.6926 25.4631C86.1103 24.206 85.8191 22.6648 85.8191 20.8395C85.8191 18.9645 86.1209 17.4055 86.7246 16.1626C87.3283 14.9126 88.1309 13.9787 89.1323 13.3608C90.1408 12.7358 91.2452 12.4233 92.4455 12.4233C93.3617 12.4233 94.1252 12.5795 94.736 12.892C95.3539 13.1974 95.851 13.581 96.2275 14.0426C96.611 14.4972 96.9022 14.9446 97.101 15.3849H97.2395V7.18182H101.767V29H97.2928V26.3793H97.101C96.888 26.8338 96.5861 27.2848 96.1955 27.7322C95.812 28.1726 95.3113 28.5384 94.6934 28.8295C94.0826 29.1207 93.3368 29.2663 92.4561 29.2663ZM93.8944 25.6548C94.6259 25.6548 95.2438 25.456 95.748 25.0582C96.2594 24.6534 96.65 24.0888 96.9199 23.3643C97.1969 22.6399 97.3354 21.7912 97.3354 20.8182C97.3354 19.8452 97.2005 19 96.9306 18.2827C96.6607 17.5653 96.2701 17.0114 95.7587 16.6207C95.2473 16.2301 94.6259 16.0348 93.8944 16.0348C93.1486 16.0348 92.5201 16.2372 92.0087 16.642C91.4973 17.0469 91.1103 17.608 90.8475 18.3253C90.5847 19.0426 90.4533 19.8736 90.4533 20.8182C90.4533 21.7699 90.5847 22.6115 90.8475 23.343C91.1174 24.0675 91.5044 24.6357 92.0087 25.0476C92.5201 25.4524 93.1486 25.6548 93.8944 25.6548ZM105.584 29V7.18182H114.32C115.925 7.18182 117.263 7.41974 118.336 7.8956C119.408 8.37145 120.214 9.03196 120.754 9.87713C121.294 10.7152 121.564 11.6811 121.564 12.7749C121.564 13.6271 121.393 14.3764 121.053 15.0227C120.712 15.6619 120.243 16.1875 119.646 16.5994C119.057 17.0043 118.382 17.2919 117.622 17.4624V17.6754C118.453 17.7109 119.231 17.9453 119.955 18.3786C120.687 18.8118 121.28 19.419 121.734 20.2003C122.189 20.9744 122.416 21.8977 122.416 22.9702C122.416 24.1278 122.129 25.1612 121.553 26.0703C120.985 26.9723 120.143 27.6861 119.028 28.2116C117.913 28.7372 116.539 29 114.906 29H105.584ZM110.197 25.2287H113.957C115.243 25.2287 116.18 24.9837 116.77 24.4936C117.359 23.9964 117.654 23.3359 117.654 22.5121C117.654 21.9084 117.509 21.3757 117.217 20.9141C116.926 20.4524 116.511 20.0902 115.971 19.8274C115.438 19.5646 114.803 19.4332 114.064 19.4332H110.197V25.2287ZM110.197 16.3118H113.616C114.249 16.3118 114.81 16.2017 115.3 15.9815C115.797 15.7543 116.188 15.4347 116.472 15.0227C116.763 14.6108 116.908 14.1172 116.908 13.5419C116.908 12.7536 116.628 12.1179 116.067 11.6349C115.513 11.152 114.724 10.9105 113.702 10.9105H110.197V16.3118ZM125.418 29V7.18182H134.026C135.681 7.18182 137.09 7.49787 138.255 8.12997C139.42 8.75497 140.308 9.625 140.919 10.7401C141.536 11.848 141.845 13.1264 141.845 14.5753C141.845 16.0241 141.533 17.3026 140.908 18.4105C140.283 19.5185 139.377 20.3814 138.191 20.9993C137.012 21.6172 135.585 21.9261 133.909 21.9261H128.422V18.2294H133.163C134.051 18.2294 134.782 18.0767 135.357 17.7713C135.94 17.4588 136.373 17.0291 136.657 16.4822C136.948 15.9283 137.094 15.2926 137.094 14.5753C137.094 13.8509 136.948 13.2187 136.657 12.679C136.373 12.1321 135.94 11.7095 135.357 11.4112C134.775 11.1058 134.036 10.9531 133.142 10.9531H130.031V29H125.418ZM144.842 7.18182H150.531L156.539 21.8409H156.795L162.803 7.18182H168.492V29H164.018V14.799H163.837L158.19 28.8935H155.143L149.497 14.7457H149.316V29H144.842V7.18182Z" fill="black" fill-opacity="0.2" />
</svg>